<?xml version="1.0" encoding="UTF-8"?>
<svg width="168px" height="168px" viewBox="0 0 168 168" version="1.1" xmlns="http://www.w3.org/2000/svg" xmlns:xlink="http://www.w3.org/1999/xlink">
    <!-- Generator: Sketch 47.1 (45422) - http://www.bohemiancoding.com/sketch -->
    <title>smaller</title>
    <desc>Created with Sketch.</desc>
    <defs>
        <path d="M84.5194968,167.372745 C130.665323,167.372745 168.192975,130.926803 168.073907,83.8183346 C167.954839,36.7098657 130.665323,0.263924387 84.5194968,0.263924387 C38.3736703,0.263924387 0.434694481,33.2972496 0.965086659,83.8183346 C1.49547884,134.339419 38.3736703,167.372745 84.5194968,167.372745 Z" id="path-1"></path>
    </defs>
    <g id="Page-1" stroke="none" stroke-width="1" fill="none" fill-rule="evenodd">
        <g id="smaller" transform="translate(-1.000000, 0.000000)">
            <g id="Default-2">
                <g id="Mask" transform="translate(0.871094, 0.000000)" fill-rule="nonzero" fill="#DEDEDE">
                    <path d="M84.5194968,167.372745 C130.665323,167.372745 168.192975,130.926803 168.073907,83.8183346 C167.954839,36.7098657 130.665323,0.263924387 84.5194968,0.263924387 C38.3736703,0.263924387 0.434694481,33.2972496 0.965086659,83.8183346 C1.49547884,134.339419 38.3736703,167.372745 84.5194968,167.372745 Z" id="path-1"></path>
                </g>
                <g id="Screen-Shot-2017-07-07-at-10.14.08-Clipped" transform="translate(0.871094, 0.000000)">
                    <mask id="mask-2" fill="white">
                        <use xlink:href="#path-1"></use>
                    </mask>
                    <g id="path-1"></g>
                    <path d="M84.3738759,136.76203 C108.500902,136.76203 128.132237,118.296037 127.999325,116.908341 C126.602299,102.322328 118.032959,89.8302325 105.859252,83 C100.553211,88.5562405 92.1262293,92.2825933 84.3738759,92.2825933 C76.3009334,92.2825933 70.2212948,88.3653997 62.3914712,83.4471148 C49.3928084,92.0568889 42.1778766,102.933059 41.0005026,116.945031 C40.885938,118.308468 60.24685,136.76203 84.3738759,136.76203 Z" id="Oval-2" fill="#949494" mask="url(#mask-2)"></path>
                    <circle id="Oval" fill="#949494" mask="url(#mask-2)" cx="84.5" cy="60.5" r="23.5"></circle>
                </g>
            </g>
        </g>
    </g>
</svg>